# Blender 3.1.0
# www.blender.org
mtllib leg.mtl
o Cube.001
v -0.250000 -0.250000 1.000000
v -0.250000 3.750000 0.500000
v -0.250000 -0.250000 -1.000000
v -0.250000 3.750000 -0.500000
v 0.250000 -0.250000 1.000000
v 0.000000 3.750000 0.500000
v 0.250000 -0.250000 -1.000000
v 0.000000 3.750000 -0.500000
v -0.250000 3.150000 0.575000
v -0.250000 3.150000 -0.575000
v 0.250000 3.150000 -0.575000
v 0.250000 3.150000 0.575000
vn -1.0000 -0.0000 -0.0000
vn -0.0000 0.1240 -0.9923
vn 0.9231 0.3846 -0.0000
vn -0.0000 0.1240 0.9923
vn -0.0000 -1.0000 -0.0000
vn -0.0000 1.0000 -0.0000
vn 1.0000 -0.0000 -0.0000
vt 0.125000 0.750000
vt 0.375000 1.000000
vt 0.375000 0.000000
vt 0.625000 0.000000
vt 0.625000 1.000000
vt 0.875000 0.750000
vt 0.125000 0.500000
vt 0.375000 0.250000
vt 0.625000 0.250000
vt 0.875000 0.500000
vt 0.375000 0.750000
vt 0.625000 0.750000
vt 0.375000 0.500000
vt 0.625000 0.500000
vt 0.587500 1.000000
vt 0.587500 0.000000
vt 0.587500 0.250000
vt 0.587500 0.500000
vt 0.587500 0.750000
s 0
f 9/16/1 2/4/1 4/9/1 10/17/1
f 10/17/2 4/9/2 8/14/2 11/18/2
f 11/18/3 8/14/3 6/12/3 12/19/3
f 12/19/4 6/12/4 2/5/4 9/15/4
f 3/7/5 7/13/5 5/11/5 1/1/5
f 8/14/6 4/10/6 2/6/6 6/12/6
f 5/11/4 12/19/4 9/15/4 1/2/4
f 7/13/7 11/18/7 12/19/7 5/11/7
f 3/8/2 10/17/2 11/18/2 7/13/2
f 1/3/1 9/16/1 10/17/1 3/8/1
